<svg viewBox="0 0 1001 310" xmlns="http://www.w3.org/2000/svg" >
  <g stroke="none" stroke-width="1" fill="none" fill-rule="evenodd">
    <path
      id="investoo"
      class="logo__investoo"
      d="M53.0121951,71.1834061 C53.0121951,59.4716157 53.3414634,45.4825328 54,38 L10.5365854,38 C7.90243902,44.8318777 3.95121951,54.5917031 0,59.4716157 L15.804878,59.4716157 L15.804878,153.491266 C15.804878,164.877729 15.4756098,180.168122 14.8170732,187 L54,187 C53.3414634,180.818777 53.0121951,165.528384 53.0121951,153.491266 L53.0121951,71.1834061 Z M171.350877,101.987124 C171.350877,77.2017167 158.692982,64.9699571 142.789474,64.9699571 C124.938596,64.9699571 114.22807,79.4334764 114.22807,101 C113.795322,152.110157 113.795322,180.776824 114.22807,187 L76.5789474,187 L76.5789474,59.8197425 L61,59.8197425 C65.5438596,52.7381974 68.4649123,45.6566524 71.3859649,38.5751073 L113.254386,38.5751073 L113.254386,58.8540773 C121.04386,45.9785408 136.298246,36 156.096491,36 C189.526316,36 208.026316,59.4978541 208.026316,101.987124 L208.026316,152.845494 C208.026316,161.858369 208.350877,176.665236 209,186 L171.350877,186 C172,176.665236 171.350877,161.858369 171.350877,152.845494 L171.350877,101.987124 Z M203,39 L245.878981,39 C247.178344,43.8101266 249.127389,49.5822785 252.700637,57.278481 L281.936306,126.864979 L316,39 L356,39 C351.88535,45.8410689 327.88535,96.8410689 284,192 L276,192 C231.881104,97.0548523 207.547771,46.0548523 203,39 Z M486,117.168776 L383.011494,117.168776 C384.298851,140.578059 402.609195,161 429,161 C446.37931,161 459,159 473,151 L462,184 C451,187 448.988506,189 422.91954,189 C378.505747,189 346,155.970464 346,113.64135 C346,69.7088608 376.896552,37 416.804598,37 C461.218391,37 486,76.443038 486,108.510549 C486,111.7173 486.321839,115.565401 486,117.168776 Z M417.455882,65 C400.568627,65 388.460784,75.4285714 384,92 L449,92 C447.088235,78.2967033 435.936275,65 417.455882,65 Z M527.77,76.8663883 C527.77,69.1503132 532.62,62.7202505 545.23,62.7202505 C554.606667,62.7202505 562,61 573,66 L585,37 C576.593333,36.6784969 558.81,37 543.29,37 C510.31,37 491.233333,53.7181628 491.233333,80.0814196 C491.233333,124.770355 548.463333,126.056367 548.463333,149.204593 C548.463333,158.528184 541.35,164.31524 530.356667,164.31524 C516.776667,164.31524 501,161 488,151 L476,185 C484.73,186.286013 515.216667,191 533,191 C566.626667,191 585,172.352818 585,146.632568 C585,99.6931106 527.77,99.0501044 527.77,76.8663883 Z M613.206557,0 C613.634973,5.16040956 613.634973,17.1604096 613.206557,36 L598,36 L587,66 L613.206557,66 L614.170492,135.138225 C614.170492,173.841297 635.97377,189 662,189 C671.639344,189 678,188 684,187 L684,155 C681.429508,157.257679 676.82623,159.005119 672.327869,159.005119 C659.47541,159.005119 650.8,151.576792 650.8,129 L649.836066,66 L684,66 L684,36 L650.8,36 C650.371585,17.1604096 650.371585,5.16040956 650.8,0 L613.206557,0 Z M686,113.324895 C686,70.7637131 720.329167,36 762.679167,36 C805.35,36 840,70.4388186 840,113.324895 C840,155.886076 805.35,190 762.679167,190 C720.329167,190 686,155.886076 686,113.324895 Z M720,112.663082 C720,137.777778 738.924528,158 762.339623,158 C785.754717,158 805,137.777778 805,112.663082 C805,87.2222222 785.754717,67 762.339623,67 C738.924528,67 720,87.2222222 720,112.663082 Z M846,113.324895 C846,70.7637131 880.329167,36 922.679167,36 C965.35,36 1000,70.4388186 1000,113.324895 C1000,155.886076 965.35,190 922.679167,190 C880.329167,190 846,155.886076 846,113.324895 Z M881,113.16129 C881,138 899.924528,158 923.339623,158 C946.754717,158 966,138 966,113.16129 C966,88 946.754717,68 923.339623,68 C899.924528,68 881,88 881,113.16129 Z"
      fill="#FFF"
    />
    <path
      id="group"
      class="logo__group"
      d="M309.865,234.59 L314.485,234.59 C314.485,238.265 313.12,240.26 310.285,242.465 C311.86,244.67 313.33,248.345 313.33,252.545 C313.33,263.045 304.825,271.55 294.115,271.55 C288.97,271.55 286.345,269.03 283.615,269.03 C281.62,269.03 279.415,271.655 279.415,275.54 C279.415,278.69 281.935,281.84 284.875,281.84 C286.555,281.84 289.81,280.79 294.22,280.79 C306.61,280.79 316.795,286.775 316.795,295.07 C316.795,302.84 306.505,309.14 294.01,309.14 C281.41,309.14 271.12,303.155 271.12,295.175 C271.12,289.715 275.425,286.25 279.94,284.255 C276.265,283.1 274.27,278.69 274.27,275.54 C274.27,272.075 276.475,267.875 280.78,266.195 C277.315,262.835 275.005,258.215 275.005,252.545 C275.005,242.255 283.51,233.855 294.115,233.855 C300.1,233.855 304.615,236.48 307.555,239.525 C308.815,238.475 309.865,236.585 309.865,234.59 Z M280.36,252.545 C280.36,260.63 286.555,267.14 294.01,267.14 C301.78,267.14 307.975,260.63 307.975,252.545 C307.975,244.565 301.78,238.265 294.01,238.265 C286.555,238.265 280.36,244.565 280.36,252.545 Z M276.475,295.07 C276.475,300.74 284.35,305.15 294.01,305.15 C303.565,305.15 311.335,300.74 311.335,295.175 C311.335,289.715 303.46,285.2 293.905,285.2 C284.35,285.2 276.475,289.61 276.475,295.07 Z M398.515,233.855 C393.265,233.855 387.91,238.265 386.125,245.3 L386.125,234.59 L379.195,234.59 C378.565,235.85 377.725,237.005 376.675,238.16 L381.19,238.16 L381.19,270.08 C381.19,273.65 381.085,277.325 380.875,281 L386.86,281 C386.545,277.325 386.44,273.65 386.44,270.08 L386.44,254.33 C386.44,246.035 392.215,238.685 397.99,238.685 C400.405,238.685 402.715,239.21 404.605,240.47 L404.605,234.38 C403.03,234.38 401.665,233.855 398.515,233.855 Z M462.49,257.795 C462.49,244.565 473.095,233.855 486.01,233.855 C499.135,233.855 509.74,244.565 509.74,257.795 C509.74,271.025 499.135,281.735 486.01,281.735 C473.095,281.735 462.49,271.025 462.49,257.795 Z M467.635,257.795 C467.635,268.505 475.825,277.115 486.01,277.115 C496.3,277.115 504.595,268.4 504.595,257.795 C504.595,247.19 496.3,238.475 486.01,238.475 C475.825,238.475 467.635,247.19 467.635,257.795 Z M580.96,263.045 L580.96,245.51 C580.96,242.675 581.065,237.635 581.17,234.59 L573.715,234.59 C572.98,235.85 572.035,237.215 570.985,238.16 L575.71,238.16 L575.71,263.465 C575.71,275.54 582.64,281.84 591.775,281.84 C599.02,281.84 603.535,277.955 605.845,273.335 C605.845,276.8 606.58,279.425 607.42,281 L612.46,281 C611.515,278.585 610.99,275.435 610.99,270.815 L610.99,245.51 C610.99,242.675 611.095,237.635 611.305,234.59 L605.425,234.59 C605.635,237.635 605.74,242.675 605.74,245.51 L605.74,262.835 C605.74,270.395 601.12,277.43 593.035,277.43 C586.735,277.43 580.96,273.02 580.96,263.045 Z M680.845,296.96 L680.845,238.16 L676.12,238.16 C677.275,237.005 678.01,235.85 678.85,234.59 L686.095,234.59 L686.095,245.72 C689.665,238.58 696.385,233.855 704.47,233.855 C717.28,233.855 727.465,244.67 727.465,257.795 C727.465,271.13 717.28,281.735 704.47,281.735 C696.595,281.735 689.455,277.85 686.095,270.395 L686.095,296.96 C686.095,299.9 686.2,304.73 686.515,307.88 L680.425,307.88 C680.74,304.73 680.845,299.9 680.845,296.96 Z M685.78,257.795 C685.78,268.505 693.865,277.22 703.84,277.22 C713.92,277.22 722.11,268.61 722.11,257.9 C722.11,247.085 713.815,238.37 703.63,238.37 C693.865,238.37 685.78,247.085 685.78,257.795 Z"
      stroke="#FFF"
      fill="#FFF"
    />
  </g>
</svg>